<?xml version="1.0" encoding="utf-8"?>
<!-- Generator: Adobe Illustrator 22.1.0, SVG Export Plug-In . SVG Version: 6.00 Build 0)  -->
<svg version="1.1" id="レイヤー_1" xmlns="http://www.w3.org/2000/svg" xmlns:xlink="http://www.w3.org/1999/xlink" x="0px"
	 y="0px" viewBox="0 0 26 26" style="enable-background:new 0 0 26 26;" xml:space="preserve">
<style type="text/css">
	.st0{fill:none;stroke:#F15A24;stroke-width:1.7;stroke-linejoin:round;stroke-miterlimit:10;}
</style>
<path class="st0" d="M11.6,1.9L2.4,9.4C2.2,9.5,2.1,9.7,2.1,9.9V24c0,0.4,0.3,0.7,0.7,0.7H9c0.4,0,0.7-0.3,0.7-0.7v-8.9
	c0-0.4,0.3-0.7,0.7-0.7h5.5c0.4,0,0.7,0.3,0.7,0.7V24c0,0.4,0.3,0.7,0.7,0.7h6.2c0.4,0,0.7-0.3,0.7-0.7V9.9c0-0.2-0.1-0.4-0.3-0.5
	l-9.2-7.5C13.7,1.1,12.5,1.1,11.6,1.9z"/>
</svg>
