<?xml version="1.0" encoding="utf-8"?>
<!-- Generator: Adobe Illustrator 22.1.0, SVG Export Plug-In . SVG Version: 6.00 Build 0)  -->
<svg version="1.1" id="レイヤー_1" xmlns="http://www.w3.org/2000/svg" xmlns:xlink="http://www.w3.org/1999/xlink" x="0px"
	 y="0px" viewBox="0 0 30 30" style="enable-background:new 0 0 30 30;" xml:space="preserve">
<style type="text/css">
	.st0{fill:#FFFFFF;stroke:#FFFFFF;stroke-width:0.75;stroke-miterlimit:10;}
</style>
<path class="st0" d="M28.6,10.7L28.6,10.7c-0.1-1.5-0.6-3-1.4-4.1c-0.6-0.8-1.2-1.5-2.1-2c-1.4-0.8-2.8-1.2-4.3-1.2
	c-1.8,0-3.5,0.7-5,2c-0.3,0.2-0.5,0.5-0.7,0.8c-0.2-0.3-0.5-0.5-0.7-0.8c-1.4-1.3-3.2-2-5-2C8,3.3,6.5,3.7,5.1,4.5
	C4.2,5.1,3.6,5.8,3,6.5c-0.8,1.1-1.3,2.6-1.4,4.1c0,1.3,0.1,2.4,0.4,3.5c0.3,1.3,1,2.6,1.9,3.8c1,1.3,2.1,2.2,3.3,3.2
	c0.4,0.3,0.8,0.7,1.2,1.1c0.7,0.6,2.1,1.7,3.4,2.8c0.8,0.6,1.3,1,1.7,1.3c0.9,0.7,1.2,0.8,1.3,0.8c0.1,0,0.2,0,0.2,0
	c0.1,0,0.2,0,0.2,0c0.2-0.1,0.4-0.2,1.3-0.8c0.4-0.3,1-0.7,1.8-1.3c1.3-1,2.7-2.1,3.4-2.8c0.4-0.4,0.8-0.7,1.3-1.1
	c1.1-0.9,2.3-1.9,3.3-3.2c0.9-1.2,1.6-2.5,1.9-3.8C28.5,13.1,28.6,11.9,28.6,10.7z M26.7,13.7L26.7,13.7c-0.3,1.1-0.8,2.2-1.6,3.3
	c-0.9,1.1-1.9,2-3,2.9c-0.4,0.4-0.9,0.7-1.3,1.1c-0.7,0.6-2,1.7-3.3,2.7c-0.8,0.6-1.3,1-1.7,1.3c-0.3,0.2-0.5,0.3-0.7,0.5
	c-0.2-0.1-0.4-0.3-0.7-0.5c-0.4-0.3-0.9-0.7-1.7-1.3c-1.3-1-2.6-2.1-3.3-2.7c-0.4-0.4-0.9-0.7-1.3-1.1C7.1,19,6,18.1,5.1,17
	c-0.8-1-1.3-2.1-1.6-3.3c-0.2-0.9-0.3-1.9-0.3-3c0-1.2,0.4-2.4,1.1-3.2c0.5-0.7,1-1.2,1.7-1.6c1.1-0.7,2.3-1,3.5-1
	c1.4,0,2.8,0.5,3.9,1.6c0.4,0.4,0.8,0.8,1.1,1.4c0.1,0.2,0.4,0.3,0.6,0.3c0.3,0,0.5-0.1,0.6-0.3c0.4-0.5,0.7-1,1.1-1.4
	c1.1-1,2.5-1.6,3.9-1.6c1.2,0,2.3,0.3,3.5,1c0.7,0.4,1.1,0.9,1.7,1.6c0.6,0.8,1,2,1.1,3.2C27.1,11.8,27,12.8,26.7,13.7z"/>
</svg>
